<svg width="718" height="357" viewBox="0 0 718 357" fill="none" xmlns="http://www.w3.org/2000/svg">
<mask id="mask0" mask-type="alpha" maskUnits="userSpaceOnUse" x="207" y="164" width="511" height="193">
<path d="M227.49 184.473C227.275 183.778 226.58 183.046 225.605 182.948C223.952 182.869 223.109 184.318 221.119 185.495C219.216 186.623 217.141 186.759 215.766 186.39C214.607 186.098 213.663 185.408 212.901 184.312C212.103 183.08 211.695 181.478 211.763 179.731C211.856 177.754 212.655 175.657 213.563 173.898C214.368 172.385 215.525 170.784 217.062 169.94C219.515 168.596 222.628 169.812 224.379 171.701C225.162 172.511 225.544 173.396 225.742 174.286C225.981 175.297 226.198 176.592 227.928 176.656C230.093 176.726 230.635 174.906 230.262 172.768C230.018 171.301 229.261 169.915 227.866 168.468C226.273 166.804 224.094 165.565 221.887 164.973C217.964 163.922 214.398 165.278 211.783 168.18C209.145 171.095 207.91 174.822 207.51 176.316C206.632 179.593 206.904 182.924 208.206 185.602C209.562 188.422 211.756 190.284 214.49 191.016C218.014 191.924 221.683 190.997 224.761 188.746C226.281 187.625 227.942 185.977 227.49 184.473ZM249.193 184.974C248.81 181.923 247.188 179.487 244.63 178.165C241.794 176.659 239.074 177.913 238.019 178.522C238.317 177.547 237.939 176.445 237.001 175.938C234.641 174.56 233.607 177.195 233.021 179.112C232.252 181.709 231.702 185.255 230.788 188.395C230.788 188.395 229.091 194.729 227.525 199.896C227.138 201.066 227.838 202.327 229.008 202.714C231.544 203.502 232.028 200.611 232.606 198.455L233.861 193.768C236.046 196.483 238.336 196.969 240.109 197.008C244.602 197.083 247.123 194.738 248.515 190.834C249.149 188.875 249.41 186.815 249.193 184.974ZM243.012 191.744C241.68 192.843 239.371 192.97 237.673 191.769C235.882 190.506 235.313 188.079 235.925 185.932C236.377 184.379 237.551 183.056 238.807 182.373C241.578 180.932 244.431 182.169 244.792 185.506C245.115 188.103 243.985 190.894 243.012 191.744ZM265.638 200.008C265.772 197.878 266.708 194.927 267.306 193.376C268.096 191.24 269.151 188.866 267.988 186.552C267.113 184.789 265.193 183.602 262.103 182.774C258.419 181.786 255.576 182.48 253.701 184.926C252.809 186.016 253.326 187.683 254.32 188.186C255.106 188.579 256.176 188.592 256.935 187.867C257.702 187.108 258.014 186.082 261.002 186.883C262.174 187.196 264.607 188.031 264.202 189.269C263.857 190.286 262.013 189.901 260.65 189.827C258.822 189.72 256.654 189.594 254.817 190.066C251.589 190.839 250.498 193.076 250.08 194.638C249.67 196.166 249.842 197.632 250.596 198.89C251.447 200.264 252.921 201.15 254.483 201.569C256.639 202.147 259.194 201.848 261.351 200.861C261.319 201.526 261.38 202.179 261.579 202.797C261.792 203.564 262.38 204.085 263.127 204.285C264.4 204.627 265.301 204.049 265.678 203.185C266.029 202.351 265.554 201.205 265.638 200.008ZM254.41 195.726C254.688 194.69 255.265 194.099 256.467 193.893C257.45 193.756 258.884 193.904 260.64 193.938L262.692 193.887C261.899 196.167 261.543 196.818 259.435 197.418C257.536 197.983 253.86 197.78 254.41 195.726ZM271.231 205.419C273.329 207.165 277.333 208.656 280.741 207.076C282.572 206.22 283.875 204.822 284.488 203.076C285.087 201.452 284.7 199.638 283.286 197.985C286.079 196.459 286.809 193.87 285.745 191.456C285.171 190.137 284.119 189.037 282.623 188.236C281.098 187.408 279.17 186.928 277.408 186.984C275.074 187.068 273.293 188.01 272.355 189.542C271.74 190.615 272.035 192.095 273.139 192.591C275.349 193.511 275.662 191.393 277.512 191.416C279.102 191.46 280.458 191.968 281.185 192.582C281.887 193.225 282.031 193.773 281.318 194.328C280.519 194.933 279.268 194.78 278.07 194.768C276.817 194.76 275.625 194.859 275.236 196.174C274.907 197.269 275.654 198.215 276.738 198.651C278.343 199.318 279.728 200.126 280.145 200.947C280.537 201.726 280.239 202.428 278.869 203.062C277.029 203.952 274.159 202.437 273.668 201.486C273.26 200.631 273.72 198.37 271.041 198.18C269.644 198.097 268.882 199.312 268.959 200.516C269.074 202.603 269.873 204.237 271.231 205.419ZM286.775 217.974C289.355 218.665 291.581 217.424 293.399 215.527C295.244 213.601 297.059 210.629 299.148 207.113C300.964 204.069 303.002 200.812 305.581 197.299C306.306 196.292 306.261 194.897 305.095 194.221C302.829 192.831 301.704 195.059 300.752 196.442C299.261 198.608 297.999 200.399 296.844 202.401C295.944 203.925 295.143 205.421 294.378 206.781C294.282 204.899 294.262 203.001 294.2 201.401C293.998 197.398 293.847 194.228 293.502 192.188C293.35 191.328 292.729 190.725 291.988 190.435C290.326 189.845 288.848 191.287 289.11 192.958C289.421 194.716 289.592 197.746 289.779 201.6C289.886 204.121 290.051 206.695 290.288 209.889C290.311 210.55 290.651 211.114 291.152 211.485L290.197 212.467C288.674 214.079 288.209 213.845 287.54 213.556C286.414 213.073 285.111 213.452 284.598 214.552C284.117 215.533 284.16 217.273 286.775 217.974ZM315.232 225.599C317.813 226.29 320.038 225.049 321.856 223.152C323.701 221.226 325.516 218.255 327.605 214.738C329.421 211.694 331.459 208.437 334.038 204.924C334.763 203.917 334.718 202.522 333.553 201.846C331.286 200.456 330.161 202.684 329.209 204.067C327.718 206.233 326.456 208.024 325.301 210.026C324.401 211.55 323.6 213.046 322.835 214.406C322.739 212.524 322.719 210.626 322.657 209.026C322.456 205.023 322.304 201.853 321.959 199.813C321.807 198.953 321.186 198.35 320.445 198.061C318.783 197.47 317.305 198.912 317.567 200.583C317.879 202.341 318.049 205.371 318.236 209.225C318.343 211.746 318.509 214.32 318.745 217.514C318.768 218.175 319.108 218.739 319.609 219.11L318.654 220.092C317.131 221.704 316.666 221.47 315.997 221.181C314.871 220.698 313.568 221.077 313.055 222.177C312.574 223.158 312.617 224.898 315.232 225.599ZM335.038 222.517C337.137 224.262 341.141 225.753 344.549 224.173C346.38 223.317 347.682 221.919 348.296 220.173C348.895 218.55 348.507 216.735 347.094 215.083C349.887 213.556 350.617 210.968 349.553 208.553C348.978 207.235 347.927 206.134 346.431 205.333C344.905 204.505 342.978 204.025 341.216 204.081C338.882 204.165 337.101 205.108 336.162 206.64C335.547 207.712 335.842 209.193 336.947 209.689C339.157 210.609 339.47 208.49 341.32 208.513C342.91 208.557 344.266 209.066 344.993 209.679C345.694 210.322 345.839 210.87 345.126 211.425C344.327 212.03 343.076 211.877 341.878 211.865C340.624 211.857 339.433 211.956 339.044 213.272C338.714 214.366 339.462 215.312 340.546 215.749C342.151 216.415 343.536 217.223 343.953 218.044C344.345 218.823 344.047 219.526 342.676 220.159C340.836 221.049 337.967 219.534 337.475 218.584C337.067 217.728 337.528 215.468 334.849 215.278C333.452 215.194 332.689 216.41 332.767 217.613C332.881 219.7 333.681 221.334 335.038 222.517ZM351.225 227.782C352.377 228.236 353.67 227.691 354.137 226.56C354.168 226.441 355.118 223.984 355.789 221.889C355.902 221.465 356.073 220.964 356.241 220.336C357.407 220.467 360.407 220.816 364.008 221.708C363.21 224.551 362.455 227.097 362.309 228.186C362.062 229.649 362.776 230.586 364.15 230.754C365.265 230.871 366.489 230.38 366.726 228.951C367.022 227.101 369.012 219.536 370.216 215.655C370.605 214.34 371.756 212.082 369.414 211.109C368.042 210.523 366.985 211.277 366.599 212.447C366.262 213.431 365.714 215.341 365.137 217.497C362.377 216.794 359.664 216.322 357.403 216.135L358.769 210.768C359.078 209.613 358.625 208.382 357.206 208.111C355.795 207.806 354.799 208.467 354.506 209.698C353.621 213.137 352.278 218.419 351.598 220.548C350.501 223.966 348.573 226.744 351.225 227.782ZM386.224 232.319C386.358 230.189 387.294 227.237 387.892 225.687C388.682 223.551 389.737 221.177 388.574 218.863C387.699 217.1 385.779 215.913 382.689 215.085C379.005 214.097 376.162 214.791 374.287 217.237C373.395 218.327 373.912 219.994 374.906 220.497C375.692 220.889 376.762 220.903 377.521 220.178C378.288 219.419 378.6 218.393 381.588 219.194C382.76 219.507 385.193 220.341 384.788 221.58C384.443 222.597 382.599 222.212 381.236 222.138C379.408 222.031 377.24 221.905 375.403 222.377C372.175 223.15 371.084 225.387 370.666 226.949C370.256 228.477 370.428 229.943 371.183 231.2C372.033 232.575 373.507 233.461 375.069 233.88C377.225 234.457 379.78 234.159 381.937 233.172C381.905 233.837 381.966 234.49 382.165 235.108C382.378 235.874 382.966 236.396 383.713 236.596C384.986 236.937 385.887 236.36 386.264 235.496C386.615 234.662 386.14 233.516 386.224 232.319ZM374.997 228.037C375.274 227.001 375.851 226.41 377.053 226.204C378.036 226.067 379.47 226.215 381.226 226.248L383.278 226.198C382.485 228.478 382.129 229.129 380.021 229.729C378.122 230.294 374.446 230.091 374.997 228.037ZM390.293 234.792C389.265 238.357 392.09 238.95 393.306 238.421C396.643 236.967 399.565 234.147 401.303 232.483L404.753 229.386C404.218 231.517 403.665 233.717 402.94 236.016C402.24 238.358 401.034 240.346 403.534 241.543C404.804 242.102 405.879 241.28 406.265 240.11C407.912 235.255 408.806 231.509 409.86 227.169C410.076 226.226 410.315 225.199 410.533 224.183C410.936 222.544 408.502 220.964 406.911 222.012C405.392 223.061 399.472 228.517 398.242 229.643C397.427 230.444 396.591 231.184 395.731 231.882C396.689 228.444 397.903 224.184 398.387 221.293C398.599 220.094 397.683 219.029 396.545 218.725C395.085 218.333 394.186 219.312 393.969 220.527C393.26 224.669 391.291 231.475 390.293 234.792ZM400.508 211.815C398.408 211.908 398.235 214.591 399.531 216.613C400.317 217.824 401.555 218.502 403.28 218.855C405.443 219.271 407.663 219.611 409.778 217.83C410.691 217.074 410.894 215.636 410.043 214.807C409.056 213.869 408.357 214.101 407.602 214.408C406.832 214.766 405.985 215.212 404.336 214.916C403.427 214.709 402.998 214.339 402.928 213.647C402.757 212.454 401.878 211.728 400.508 211.815ZM416.249 229.136C416.979 229.332 417.709 229.527 418.363 229.666C417.43 234.712 417.067 236.744 416.621 238.408C415.716 241.787 414.011 244.005 416.941 245.026C418.026 245.39 419.232 244.694 419.595 243.609C420.677 240.386 421.004 239.437 421.736 235.756C421.98 234.439 422.33 232.858 422.712 230.686C424.368 231.093 425.648 231.545 426.667 231.818C428.127 232.21 428.989 232.186 429.591 230.891C430.189 229.814 429.729 228.472 428.639 227.924C427.324 227.263 425.641 226.885 423.042 226.261C418.272 225.183 417 224.769 416.032 224.51C414.844 224.192 413.423 224.739 413.244 226.02C412.851 228.571 415.06 228.817 416.249 229.136ZM435.486 250.25C437.354 250.751 441.806 250.706 444.127 248.835C445.074 248.088 445.361 246.745 444.622 245.765C443.691 244.624 442.299 244.997 440.835 245.569C439.715 246.015 438.398 246.445 436.633 245.972C436.072 245.822 434.818 245.34 433.951 244.434C433.125 243.576 432.711 242.61 432.892 240.984C435.441 241.521 437.649 241.84 439.561 242.243C443.494 243.115 445.175 243.566 446.405 242.439C447.991 240.935 447.574 238.348 447.307 237.24C446.419 233.762 443.307 231.182 440.421 230.408C437.008 229.494 430.895 230.913 428.811 238.689C427.638 243.07 429.218 245.932 430.782 247.498C432.584 249.4 434.858 250.082 435.486 250.25ZM439.283 234.653C440.608 235.008 442.736 236.506 443.119 238.811C441.632 238.521 440.358 238.18 438.573 237.847C437.306 237.617 435.877 237.38 434.34 237.004C434.844 236.211 435.507 235.57 436.234 235.164C437.436 234.485 438.621 234.475 439.283 234.653ZM253.743 227.558C257.277 226.321 257.856 223.073 256.426 220.87C255.206 218.905 252.438 217.417 247.768 216.239C245.313 215.618 242.736 214.709 242.019 217.046C241.903 217.343 239.614 224.936 237.929 232.31C237.302 235.127 239.934 235.013 242.651 235.468C245.882 236.043 248.127 236.426 249.883 236.259C252.652 236.11 254.946 234.341 255.61 231.862C255.961 230.554 255.296 229.029 253.743 227.558ZM242.711 231.171C243.041 229.804 243.362 228.47 243.708 227.18L247.256 228.131C248.685 228.641 249.843 229.206 250.507 229.784C251.817 231.009 251.247 232.185 247.956 231.903C246.798 231.811 245.092 231.591 242.711 231.171ZM248.597 224.213C248.113 224.12 245.711 223.44 244.811 223.199C245.129 222.01 245.441 220.984 245.664 220.152C247.949 220.655 249.484 221.175 250.525 221.636C253.28 222.902 253.072 223.811 251.927 224.214C251.07 224.494 249.659 224.462 248.597 224.213ZM273.249 239.317C273.382 237.188 274.319 234.236 274.916 232.685C275.707 230.549 276.762 228.175 275.598 225.862C274.724 224.099 272.804 222.911 269.714 222.083C266.029 221.096 263.186 221.79 261.312 224.236C260.419 225.325 260.937 226.992 261.931 227.495C262.717 227.888 263.787 227.901 264.545 227.177C265.313 226.418 265.624 225.391 268.613 226.192C269.784 226.506 272.218 227.34 271.813 228.578C271.468 229.596 269.624 229.211 268.26 229.137C266.433 229.029 264.265 228.903 262.428 229.375C259.2 230.148 258.109 232.385 257.69 233.947C257.281 235.476 257.452 236.941 258.207 238.199C259.058 239.573 260.531 240.459 262.093 240.878C264.25 241.456 266.805 241.158 268.962 240.171C268.929 240.835 268.991 241.489 269.189 242.106C269.402 242.873 269.991 243.394 270.738 243.595C272.011 243.936 272.912 243.358 273.289 242.495C273.64 241.661 273.164 240.514 273.249 239.317ZM262.021 235.035C262.299 233.999 262.876 233.408 264.077 233.202C265.06 233.065 266.495 233.213 268.251 233.247L270.303 233.196C269.51 235.477 269.153 236.127 267.046 236.727C265.147 237.292 261.471 237.09 262.021 235.035ZM292.491 248.459C296.94 249.651 300.245 251.647 301.071 248.701C302.278 244.603 302.573 243.772 303.266 240.1C304.207 234.892 306.824 232.663 304.054 231.321C302.963 230.773 301.654 231.242 301.095 232.311C301.024 232.438 299.448 235.673 298.894 239.438C298.483 242.057 298.208 242.948 297.483 245.247C295.523 244.685 292.991 244.08 291.735 243.743L292.506 241.274C293.132 239.277 293.52 237.488 293.875 235.891C295.034 230.615 296.505 230.153 294.793 228.73C293.899 227.926 292.51 228.082 291.706 228.977C290.576 230.275 290.154 232.255 289.538 234.965C289.231 236.448 288.844 238.164 288.28 239.997C287.951 241.091 287.686 241.876 287.517 242.504C286.066 242.079 284.301 241.605 282.076 241.009C283.017 238.313 284.152 234.486 285.112 230.904C285.744 228.544 286.509 226.437 284.086 225.97C282.896 225.724 281.704 226.369 281.42 227.567C280.483 231.265 279.17 235.827 278.125 238.913C277.532 240.72 275.624 243.83 278.536 244.647L284.275 246.184C288.834 247.37 287.652 247.162 292.491 248.459ZM327.693 256.654C327.397 258.303 328.745 259.247 330.016 259.26C330.988 259.229 331.923 258.661 332.115 257.402C332.572 254.54 333.588 249.935 334.414 246.717C335.442 242.606 336.734 241.115 334.363 240.115C329.195 237.803 326.733 237.689 322.266 236.837C321.178 236.619 320.054 237.282 319.72 238.394C318.903 241.305 317.696 245.404 316.743 248.551C315.715 252.116 314.261 254.893 316.96 255.689C318.122 256.036 319.357 255.366 319.71 254.187L320.985 249.834L323.428 241.535C326.14 242.007 327.969 242.242 330.749 243.278C330.306 244.797 329.771 246.928 329.332 248.976C328.687 251.788 328.005 254.808 327.693 256.654ZM355.928 250.844C355.545 247.793 353.923 245.356 351.365 244.034C348.53 242.528 345.809 243.783 344.755 244.392C345.052 243.416 344.674 242.314 343.736 241.808C341.376 240.429 340.342 243.064 339.756 244.982C338.987 247.578 338.437 251.125 337.523 254.265C337.523 254.265 335.826 260.598 334.26 265.765C333.873 266.936 334.573 268.197 335.743 268.583C338.28 269.372 338.763 266.481 339.341 264.324L340.597 259.638C342.781 262.353 345.071 262.839 346.844 262.877C351.337 262.953 353.858 260.607 355.25 256.704C355.884 254.744 356.145 252.685 355.928 250.844ZM349.747 257.613C348.415 258.712 346.106 258.84 344.408 257.638C342.617 256.376 342.048 253.949 342.66 251.802C343.112 250.249 344.286 248.925 345.543 248.243C348.313 246.801 351.166 248.039 351.528 251.375C351.851 253.973 350.721 256.764 349.747 257.613ZM357.304 265.407C357.695 266.458 359.139 267.318 360.454 266.961C363.478 266.133 366.154 263.21 368.349 260.996C369.58 259.797 369.528 259.856 372.065 257.588C371.377 260.424 370.518 263.634 369.284 267.015C368.822 268.129 369.005 269.143 370.524 269.859C372.986 270.992 373.758 267.705 374.208 266.297C375.474 262.523 376.202 259.261 376.849 256.304C377.127 254.995 377.416 253.781 377.701 252.583C378.077 250.973 375.675 249.547 374.157 250.323C373.249 250.79 371.166 252.725 367.269 256.266C365.463 257.912 364.532 259.009 362.818 260.515C363.82 256.234 365.03 251.99 365.496 249.841C365.756 248.6 365.174 247.443 363.764 247.138C361.291 246.585 361.011 249.33 360.904 249.866C360.316 252.329 359.31 256.627 358.405 260.006C357.418 263.69 357.009 264.673 357.304 265.407ZM380.037 271.844C382.136 273.589 386.14 275.081 389.548 273.501C391.379 272.644 392.681 271.246 393.295 269.5C393.893 267.877 393.506 266.063 392.093 264.41C394.886 262.884 395.616 260.295 394.552 257.881C393.977 256.562 392.925 255.461 391.43 254.66C389.904 253.833 387.976 253.353 386.214 253.408C383.881 253.493 382.1 254.435 381.161 255.967C380.546 257.04 380.841 258.52 381.946 259.016C384.156 259.936 384.469 257.818 386.319 257.84C387.909 257.884 389.265 258.393 389.992 259.006C390.693 259.649 390.837 260.198 390.125 260.753C389.326 261.357 388.075 261.204 386.877 261.193C385.623 261.184 384.432 261.284 384.043 262.599C383.713 263.693 384.461 264.64 385.545 265.076C387.15 265.743 388.535 266.55 388.952 267.372C389.344 268.15 389.046 268.853 387.675 269.487C385.835 270.377 382.966 268.862 382.474 267.911C382.066 267.056 382.527 264.795 379.848 264.605C378.451 264.522 377.688 265.737 377.766 266.941C377.88 269.028 378.68 270.661 380.037 271.844ZM400.528 270.692C401.801 271.033 402.752 270.542 403.152 269.048C403.471 268.06 404.769 263.894 405.834 260.194C406.418 258.149 407.12 256.207 407.603 254.408C407.976 253.015 407.165 251.761 405.952 251.399C404.729 251.072 403.468 251.771 403.104 253.13C402.613 254.963 402.022 256.898 401.403 258.934C399.975 263.993 399.088 267.031 398.897 268.017C398.646 269.223 399.373 270.383 400.528 270.692ZM401.847 273.102C402.937 274.741 402.774 276.298 401.57 277.195C400.428 278.127 398.798 277.69 397.846 276.761C396.507 275.511 396.51 273.528 397.71 272.448C398.973 271.331 400.724 271.454 401.847 273.102Z" fill="#FF9900"/>
<path d="M715.499 242C715.499 248.076 714.554 254.688 712.591 261.5C711.851 264.3 708.888 271.567 707.499 274.85C704.818 280.47 701.437 286.079 697.316 291.5" stroke="#FF9900" stroke-width="3.5" stroke-linecap="round"/>
<path d="M427.5 279C508 410.5 634.5 331.697 634.5 331.697" stroke="#FF9900" stroke-width="3.5" stroke-linecap="round"/>
<path fill-rule="evenodd" clip-rule="evenodd" d="M678.992 321.304L651.414 328.115C650.032 328.456 648.635 327.612 648.293 326.23C648.128 325.562 648.237 324.856 648.595 324.269L662.722 301.103C663.463 299.888 665.05 299.503 666.265 300.244C666.864 300.61 667.288 301.203 667.44 301.888L668.598 307.114C668.701 307.578 669.16 307.87 669.623 307.767C669.737 307.742 669.845 307.694 669.94 307.626L682.742 298.404C683.897 297.572 685.508 297.834 686.34 298.989C686.365 299.023 686.388 299.057 686.411 299.092L689.047 303.153C689.822 304.347 689.482 305.944 688.288 306.719C688.262 306.736 688.236 306.752 688.21 306.768L675.618 314.318C675.211 314.562 675.079 315.09 675.323 315.497C675.411 315.644 675.541 315.761 675.696 315.833L679.36 317.548C680.361 318.016 680.793 319.207 680.325 320.209C680.069 320.756 679.579 321.159 678.992 321.304Z" stroke="#FF9900" stroke-width="4" stroke-linecap="round"/>
</mask>
<g mask="url(#mask0)">
<rect x="-117" y="-81" width="884" height="629" fill="url(#paint0_linear)"/>
</g>
<defs>
<linearGradient id="paint0_linear" x1="721.63" y1="86.3213" x2="-96.2874" y2="69.7838" gradientUnits="userSpaceOnUse">
<stop stop-color="#FFC700"/>
<stop offset="1" stop-color="#FFA800"/>
</linearGradient>
</defs>
</svg>
