<svg width="457" height="471" viewBox="0 0 457 471" fill="none" xmlns="http://www.w3.org/2000/svg">
<mask id="mask0" mask-type="alpha" maskUnits="userSpaceOnUse" x="0" y="5" width="288" height="278">
<path d="M28.5867 95.9726C28.2877 95.9435 27.3238 95.674 24.8655 93.7668C21.1186 90.7854 18.817 88.3084 17.5125 87.3112C17.8979 86.6438 18.2753 86.015 18.6834 85.4325C21.4467 81.1434 22.8457 77.875 22.8569 77.781C23.4818 76.6491 23.0565 75.198 21.9337 74.6071C19.279 73.1892 18.2933 76.4379 17.516 77.8836C16.0393 80.5905 13.3851 85.2871 11.132 89.2393C10.6655 87.3624 10.2873 85.4074 9.76407 83.4548C9.061 80.6951 8.68476 77.593 5.91837 78.4071C4.66192 78.7437 3.94222 80.0648 4.31284 81.3122C5.41595 85.2932 6.36258 89.0978 7.23886 92.7756C7.96256 95.7482 8.68383 98.5758 9.44816 101.428C9.81212 102.787 10.2605 105.615 12.8753 104.914C14.1227 104.543 14.8424 103.222 14.5102 101.983C13.9076 99.8694 13.3389 97.747 12.7951 95.5816C13.3411 94.8347 13.9386 93.6009 15.1091 91.4493C19.2624 95.2681 22.2153 97.9346 24.6571 99.3731C28.6457 101.762 30.6064 100.454 30.7615 98.5199C30.8675 97.2176 29.9184 96.0525 28.5867 95.9726ZM35.1729 95.6273C38.0478 97.4593 41.0395 97.6222 43.5645 96.6544C47.7453 95.0064 50.6202 90.2507 49.0187 84.274C48.0224 80.5556 45.7961 78.4952 44.2075 77.5924C42.2132 76.3979 39.9722 76.2523 37.7479 76.8483C35.0992 77.558 32.9375 79.3383 31.6985 81.9815C30.6435 84.1568 30.3239 86.6992 30.8225 88.9677C31.0503 90.0896 31.7416 93.4166 35.1729 95.6273ZM38.8671 81.0251C40.8027 80.5065 42.5541 81.2019 43.8329 83.4616C44.9801 85.5018 45.4297 88.4022 44.5282 90.0632C43.0199 92.9241 40.3985 93.7357 37.5576 91.8946C35.6652 90.6728 35.3788 88.857 35.1898 88.0159C34.7206 85.7212 35.726 81.8668 38.8671 81.0251ZM75.5119 90.4417C74.7892 88.2878 74.2745 85.8234 74.2608 85.7724C73.9693 84.4129 73.0275 83.6825 71.1598 84.183C70.8732 83.1133 70.454 82.0245 70.2608 81.4393C69.0923 77.6215 68.2111 73.6538 67.8614 71.8731C67.2213 68.8053 63.4893 70.7698 62.0043 71.2041C59.5311 71.9578 56.7983 72.4899 55.5813 72.634C52.8506 73.0381 53.7781 75.9561 54.3474 78.6242C54.7845 80.5271 55.2646 82.4549 55.2727 84.4545C55.2993 86.795 54.6972 88.0118 54.6027 88.4739C53.627 88.7717 52.6686 89.3379 53.0647 91.0879C53.8003 94.5123 54.6428 96.4339 54.7086 96.5437C55.1832 97.6358 56.5085 98.0996 57.6267 97.6544C60.0317 96.646 58.5445 94.424 57.8873 92.1069C62.4129 90.9307 67.1749 89.6183 70.5053 88.8715C70.7964 89.9582 70.9994 91.1231 71.433 92.0624C72.1038 93.4113 73.4889 93.6225 74.521 93.1276C75.3663 92.6827 75.9256 91.7139 75.5119 90.4417ZM59.2798 87.1842C59.8938 83.6348 59.3047 80.5534 58.6853 77.6985C58.5898 77.3419 58.5145 76.9253 58.4099 76.5348C59.9993 76.2181 62.072 75.7355 64.0403 75.1353C64.6403 77.8499 65.7255 82.0358 66.881 85.3295C64.0012 85.9919 61.7927 86.5109 59.2798 87.1842ZM99.3388 79.7989C99.9068 81.3756 101.547 81.5185 102.653 80.8944C103.48 80.3816 104.006 79.4219 103.542 78.2358C102.508 75.5286 101.085 71.0328 100.191 67.8328C99.0263 63.759 99.3988 61.8212 96.8458 62.1413C91.2144 62.7221 89.0248 63.8548 84.7306 65.3512C83.6791 65.7057 83.0373 66.8422 83.3036 67.9719C84.0522 70.9014 85.0559 75.0547 85.8047 78.2571C86.6968 81.8579 86.8262 84.9897 89.5611 84.3297C90.7417 84.0497 91.4763 82.852 91.1918 81.6543L90.1199 77.2464L88.0853 68.8381C90.6703 67.8906 92.3725 67.1798 95.2977 66.6871C95.6732 68.2243 96.2759 70.3376 96.9192 72.3309C97.7672 75.0881 98.6867 78.0446 99.3388 79.7989ZM108.862 75.8822C111.737 77.7142 114.729 77.8771 117.254 76.9094C121.435 75.2614 124.31 70.5056 122.708 64.529C121.712 60.8105 119.486 58.7501 117.897 57.8473C115.903 56.6529 113.662 56.5072 111.438 57.1032C108.789 57.8129 106.627 59.5932 105.388 62.2364C104.333 64.4117 104.013 66.9541 104.512 69.2226C104.74 70.3445 105.431 73.6715 108.862 75.8822ZM112.557 61.2801C114.492 60.7614 116.244 61.4568 117.523 63.7165C118.67 65.7567 119.119 68.6571 118.218 70.3182C116.71 73.1791 114.088 73.9907 111.247 72.1495C109.355 70.9278 109.068 69.1119 108.879 68.2708C108.41 65.9762 109.416 62.1217 112.557 61.2801ZM149.202 70.6966C148.479 68.5427 147.964 66.0783 147.95 66.0274C147.659 64.6678 146.717 63.9375 144.849 64.4379C144.563 63.3682 144.144 62.2795 143.95 61.6943C142.782 57.8764 141.901 53.9087 141.551 52.128C140.911 49.0602 137.179 51.0247 135.694 51.4591C133.221 52.2127 130.488 52.7448 129.271 52.8889C126.54 53.293 127.468 56.211 128.037 58.8792C128.474 60.7821 128.954 62.7098 128.962 64.7094C128.989 67.0499 128.387 68.2667 128.292 68.7288C127.317 69.0266 126.358 69.5928 126.754 71.3429C127.49 74.7672 128.332 76.6889 128.398 76.7986C128.873 77.8907 130.198 78.3545 131.316 77.9093C133.721 76.901 132.234 74.6789 131.577 72.3618C136.102 71.1856 140.864 69.8732 144.195 69.1265C144.486 70.2131 144.689 71.378 145.123 72.3173C145.793 73.6662 147.178 73.8774 148.211 73.3825C149.056 72.9376 149.615 71.9689 149.202 70.6966ZM132.969 67.4392C133.583 63.8898 132.994 60.8083 132.375 57.9534C132.279 57.5968 132.204 57.1802 132.099 56.7897C133.689 56.473 135.762 55.9905 137.73 55.3903C138.33 58.1048 139.415 62.2908 140.571 65.5844C137.691 66.2469 135.482 66.7658 132.969 67.4392ZM175.705 61.2837C177.234 60.8743 178.169 59.2041 176.848 57.7383C175.849 56.6592 172.601 53.4349 168.358 50.8413L170.749 46.9977C172.08 44.967 173.281 44.1537 172.334 42.5877C171.753 41.5059 170.606 41.0306 169.319 41.7942C168.778 42.0847 168.299 42.5405 165.958 46.298C164.945 47.9524 163.751 49.9467 162.546 52.1074C162.2 50.817 162.166 50.8261 161.679 48.4636C161.105 45.7784 160.677 44.1824 158.588 44.6695C157.381 44.9201 156.62 46.0884 156.849 47.2827C157.241 49.0158 157.794 50.9423 158.396 53.0556C158.952 54.9266 159.509 56.8702 159.898 58.6587C160.819 62.5063 160.437 64.1373 162.416 64.3897C164.574 64.7031 165.216 63.0208 165.069 61.9317C165.069 61.9317 164.718 59.5328 164.113 57.2745C164.537 56.8879 164.976 56.1514 165.921 54.5152C169.799 56.8975 172.768 59.7598 173.416 60.5505C174.021 61.2439 174.907 61.4976 175.705 61.2837ZM194.465 51.5619C193.516 49.6506 192.851 46.6259 192.594 44.9843C192.21 42.7394 191.937 40.1558 189.772 38.734C188.134 37.6444 185.877 37.5758 182.787 38.4038C179.102 39.391 176.987 41.4136 176.587 44.4691C176.358 45.8587 177.641 47.0438 178.752 46.9825C179.63 46.9293 180.563 46.4062 180.858 45.3992C181.143 44.3583 180.899 43.3135 183.888 42.5128C185.059 42.1988 187.584 41.7044 187.852 42.979C188.062 44.033 186.273 44.6217 185.055 45.2391C183.419 46.0597 181.478 47.0347 180.123 48.3622C177.714 50.6456 177.888 53.1285 178.306 54.6906C178.716 56.2187 179.597 57.4021 180.88 58.1139C182.304 58.8788 184.023 58.9095 185.585 58.491C187.741 57.9132 189.805 56.3776 191.179 54.4442C191.484 55.036 191.863 55.5712 192.344 56.0065C192.912 56.5641 193.682 56.7217 194.429 56.5215C195.703 56.1803 196.194 55.2297 196.089 54.2934C195.976 53.3956 194.991 52.6404 194.465 51.5619ZM182.601 53.4671C182.323 52.4314 182.527 51.6306 183.465 50.8516C184.248 50.2415 185.564 49.6522 187.102 48.8034L188.853 47.7335C189.307 50.1052 189.324 50.8468 187.798 52.4203C186.437 53.8588 183.151 55.5216 182.601 53.4671ZM211.8 51.1936C212.93 50.9273 213.598 49.8202 213.413 48.7232C213.175 47.2221 212.656 45.0136 212.001 42.5686C212.629 42.4002 213.215 42.2795 213.81 42.1203C214.59 42.6572 215.704 43.487 217.054 44.6539C218.14 45.5822 219.275 46.6248 220.535 47.9979C221.104 48.628 222.05 48.8295 222.831 48.6202C224.902 48.0652 224.908 46.1165 223.861 44.9956C220.949 41.9362 218.186 39.9104 216.529 38.7529L218.068 34.9193C218.781 33.2359 220.875 29.9814 218.165 29.0335C216.822 28.5743 215.747 29.0443 215.238 30.1999C214.294 32.3818 212.789 36.4792 212.178 38.1354L210.87 38.4857L209.687 34.5444C209.412 33.6536 208.907 31.0227 206.587 31.7355C205.424 32.0833 204.708 33.349 205.077 34.5239L206.576 39.7092L204.845 40.2457C204.417 39.8692 203.892 39.3365 203.32 38.8344C200.826 36.5184 199.115 34.9568 197.475 34.5409C196.288 34.1856 195.153 34.9083 194.75 36.0535C194.026 38.1039 196.104 38.4569 197.798 39.8227C199.034 40.7656 200.377 42.0435 201.489 43.0012C199.889 47.0149 198.461 51.6013 198.443 51.8063C198.059 53.0195 198.54 54.2735 199.727 54.6287C200.644 54.8564 202.292 54.4875 202.656 53.0615C203.294 50.4157 204.309 47.6867 205.625 44.5136L207.749 43.8169C208.341 46.0242 208.853 48.0708 209.063 49.3976C209.29 50.7199 210.254 51.5351 211.8 51.1936ZM248.53 44.0818C247.807 41.9278 247.292 39.4634 247.278 39.4125C246.987 38.0529 246.045 37.3226 244.177 37.823C243.891 36.7533 243.472 35.6646 243.279 35.0794C242.11 31.2615 241.229 27.2938 240.879 25.5131C240.239 22.4454 236.507 24.4098 235.022 24.8442C232.549 25.5978 229.816 26.1299 228.599 26.274C225.868 26.6781 226.796 29.5961 227.365 32.2643C227.802 34.1672 228.282 36.0949 228.29 38.0946C228.317 40.435 227.715 41.6518 227.62 42.1139C226.645 42.4118 225.686 42.9779 226.082 44.728C226.818 48.1523 227.66 50.074 227.726 50.1837C228.201 51.2759 229.526 51.7396 230.644 51.2944C233.049 50.2861 231.562 48.064 230.905 45.747C235.431 44.5707 240.193 43.2584 243.523 42.5116C243.814 43.5982 244.017 44.7631 244.451 45.7024C245.122 47.0513 246.507 47.2626 247.539 46.7676C248.384 46.3228 248.943 45.354 248.53 44.0818ZM232.297 40.8243C232.911 37.2749 232.322 34.1935 231.703 31.3385C231.607 30.982 231.532 30.5654 231.428 30.1748C233.017 29.8582 235.09 29.3756 237.058 28.7754C237.658 31.4899 238.743 35.6759 239.899 38.9695C237.019 39.632 234.81 40.1509 232.297 40.8243ZM251.148 37.7569C254.023 39.589 257.014 39.7518 259.539 38.7841C263.72 37.1361 266.595 32.3804 264.994 26.4037C263.997 22.6853 261.771 20.6249 260.182 19.7221C258.188 18.5276 255.947 18.3819 253.723 18.9779C251.074 19.6877 248.912 21.468 247.673 24.1111C246.619 26.2864 246.299 28.8288 246.798 31.0974C247.025 32.2192 247.717 35.5463 251.148 37.7569ZM254.842 23.1548C256.778 22.6362 258.529 23.3316 259.808 25.5913C260.955 27.6314 261.405 30.5319 260.503 32.1929C258.995 35.0538 256.373 35.8654 253.533 34.0243C251.64 32.8025 251.354 30.9866 251.165 30.1456C250.696 27.8509 251.701 23.9965 254.842 23.1548ZM270.504 32.5705C271.396 36.1713 274.14 35.2723 274.928 34.2059C277.091 31.2785 278.211 27.3753 278.884 25.0657L280.324 20.6581C280.927 22.7714 281.547 24.9527 282.069 27.3061C282.633 29.6844 282.583 32.0091 285.347 31.7963C286.726 31.6452 287.246 30.3956 286.996 29.1889C285.994 24.1615 284.896 20.4704 283.639 16.185C283.354 15.2602 283.047 14.2506 282.728 13.2624C282.257 11.6415 279.36 11.4899 278.506 13.1928C277.715 14.8605 275.316 22.546 274.814 24.1364C274.508 25.2374 274.155 26.2965 273.759 27.3308C272.869 23.8749 271.791 19.578 270.764 16.8322C270.348 15.6879 269.023 15.2241 267.885 15.529C266.425 15.9202 266.135 17.2171 266.556 18.3783C268.012 22.3193 269.71 29.1983 270.504 32.5705ZM267.862 7.56434C266.09 8.69424 267.282 11.1046 269.415 12.2072C270.701 12.8635 272.112 12.8313 273.783 12.2744C275.864 11.5529 277.957 10.7374 278.898 8.13767C279.31 7.02638 278.767 5.67959 277.615 5.3877C276.292 5.06884 275.803 5.61859 275.302 6.26234C274.815 6.95703 274.304 7.76724 272.727 8.33528C271.836 8.61037 271.28 8.5046 270.874 7.94006C270.129 6.99321 269.005 6.8032 267.862 7.56434ZM101.18 118.523C102.708 118.113 103.644 116.443 102.323 114.977C101.324 113.898 98.0759 110.674 93.8323 108.08L96.2236 104.237C97.5539 102.206 98.7555 101.393 97.8081 99.8268C97.2271 98.745 96.0806 98.2696 94.793 99.0332C94.2521 99.3237 93.7736 99.7795 91.432 103.537C90.4194 105.191 89.225 107.186 88.0205 109.346C87.6748 108.056 87.6408 108.065 87.1533 105.703C86.5794 103.017 86.1518 101.421 84.0621 101.909C82.8554 102.159 82.0947 103.327 82.3238 104.522C82.7154 106.255 83.268 108.181 83.8706 110.295C84.4266 112.166 84.9837 114.109 85.372 115.898C86.2937 119.745 85.9118 121.376 87.8903 121.629C90.0488 121.942 90.69 120.26 90.5437 119.171C90.5437 119.171 90.1921 116.772 89.587 114.514C90.0112 114.127 90.4508 113.39 91.3954 111.754C95.273 114.136 98.242 116.999 98.8906 117.79C99.4949 118.483 100.382 118.737 101.18 118.523ZM119.032 98.4165C117.174 95.9662 114.551 94.6672 111.675 94.8008C108.466 94.9145 106.738 97.3612 106.129 98.4161C105.899 97.4222 105.021 96.6567 103.955 96.6874C101.222 96.6737 101.644 99.4723 102.095 101.426C102.727 104.059 104.024 107.406 104.803 110.582C104.803 110.582 106.5 116.915 107.727 122.173C107.977 123.38 109.213 124.123 110.42 123.872C113.011 123.287 111.984 120.541 111.407 118.385L110.151 113.699C113.4 114.957 115.626 114.233 117.181 113.38C121.11 111.199 122.12 107.907 121.374 103.831C120.944 101.817 120.14 99.9031 119.032 98.4165ZM117.063 107.37C116.459 108.987 114.523 110.252 112.452 110.061C110.27 109.863 108.564 108.046 108.02 105.88C107.635 104.309 107.99 102.576 108.737 101.357C110.415 98.7235 113.505 98.3688 115.486 101.077C117.065 103.166 117.482 106.148 117.063 107.37ZM128.441 97.6059C128.173 96.6041 127.923 95.6702 127.657 94.8134C127.111 93.0488 126.623 90.6862 124.146 91.4229C122.83 91.8118 122.387 93.0771 122.807 94.2383C124.02 97.6078 125.334 102.988 126.432 108.99C126.67 110.419 127.944 111.169 129.041 110.984C129.875 110.834 130.456 110.423 130.74 109.783C132.173 109.836 134.032 109.302 135.695 108.783C140.64 107.203 141.667 104.653 141.661 102.799C141.609 100.429 140.823 98.5829 139.32 97.457C136.677 95.4718 132.702 96.3915 128.441 97.6059ZM137.107 102.781C136.849 103.378 136.11 104.086 134.41 104.669C132.815 105.169 130.965 105.464 130.267 105.506C129.998 104.231 129.752 103.042 129.468 101.844C131.055 101.382 132.803 100.914 134.25 100.744C137.54 100.391 137.374 102.146 137.107 102.781ZM146.099 91.5824C145.38 88.8997 145.804 85.7287 142.691 86.1989C141.283 86.3761 140.758 87.6087 141.004 88.7985C142.638 96.4588 144.352 101.768 145.162 104.317C145.587 105.769 147.041 106.234 148.134 105.832C149.108 105.462 149.804 104.457 149.372 103.117C149.353 103.049 147.212 95.8702 146.099 91.5824ZM170.142 99.3348C174.59 98.1428 178.45 98.2186 177.693 95.2551C176.689 91.1019 176.529 90.2347 175.293 86.7079C173.504 81.7279 174.656 78.4893 171.585 78.7115C170.367 78.7832 169.468 79.8429 169.518 81.0488C169.521 81.1937 169.773 84.784 171.176 88.3207C172.13 90.7948 172.337 91.7038 172.858 94.0573C170.88 94.5511 168.385 95.2923 167.129 95.629L166.562 93.1057C166.105 91.0625 165.547 89.3194 165.056 87.7585C163.422 82.6096 164.464 81.4749 162.271 81.0982C161.094 80.8494 159.969 81.6785 159.72 82.8552C159.391 84.545 160.016 86.4703 160.837 89.1257C161.313 90.5632 161.836 92.2429 162.264 94.1118C162.525 95.2246 162.688 96.0363 162.857 96.6645C161.387 97.0218 159.621 97.4949 157.397 98.0909C156.864 95.2857 155.933 91.4041 154.973 87.8215C154.341 85.4614 153.95 83.255 151.618 84.0618C150.465 84.4436 149.755 85.5983 150.107 86.7777C151.146 90.4485 152.289 95.0557 152.927 98.2514C153.316 100.112 153.22 103.76 156.15 103.011L161.888 101.473C166.43 100.22 165.303 100.631 170.142 99.3348ZM197.35 92.7541C198.878 92.3446 199.814 90.6745 198.493 89.2086C197.494 88.1296 194.246 84.9053 190.002 82.3117L192.394 78.468C193.724 76.4374 194.925 75.6241 193.978 74.0581C193.397 72.9763 192.251 72.501 190.963 73.2645C190.422 73.5551 189.944 74.0108 187.602 77.7684C186.589 79.4227 185.395 81.417 184.191 83.5778C183.845 82.2874 183.811 82.2965 183.323 79.9339C182.749 77.2488 182.322 75.6527 180.232 76.1399C179.025 76.3904 178.265 77.5587 178.494 78.753C178.885 80.4861 179.438 82.4127 180.041 84.526C180.597 86.397 181.154 88.3405 181.542 90.1291C182.464 93.9767 182.082 95.6077 184.06 95.8601C186.219 96.1734 186.86 94.4912 186.714 93.4021C186.714 93.4021 186.362 91.0031 185.757 88.7449C186.181 88.3583 186.621 87.6217 187.565 85.9856C191.443 88.3678 194.412 91.2301 195.061 92.0208C195.665 92.7142 196.552 92.9679 197.35 92.7541ZM203.178 87.8805C206.053 89.7125 209.044 89.8754 211.569 88.9076C215.75 87.2596 218.625 82.5039 217.024 76.5272C216.027 72.8088 213.801 70.7484 212.212 69.8456C210.218 68.6511 207.977 68.5055 205.753 69.1015C203.104 69.8112 200.942 71.5915 199.703 74.2347C198.648 76.41 198.329 78.9524 198.827 81.2209C199.055 82.3428 199.746 85.6698 203.178 87.8805ZM206.872 73.2783C208.808 72.7597 210.559 73.4551 211.838 75.7148C212.985 77.755 213.435 80.6554 212.533 82.3164C211.025 85.1773 208.403 85.9889 205.562 84.1478C203.67 82.926 203.384 81.1102 203.195 80.2691C202.725 77.9745 203.731 74.12 206.872 73.2783ZM222.534 82.694C223.426 86.2948 226.17 85.3958 226.958 84.3294C229.121 81.4021 230.241 77.4988 230.914 75.1892L232.354 70.7817C232.956 72.895 233.577 75.0762 234.099 77.4296C234.663 79.8079 234.613 82.1326 237.376 81.9198C238.755 81.7687 239.276 80.5192 239.025 79.3124C238.024 74.285 236.926 70.5939 235.668 66.3085C235.384 65.3837 235.077 64.3741 234.758 63.386C234.287 61.7651 231.389 61.6134 230.535 63.3163C229.745 64.984 227.346 72.6696 226.844 74.2599C226.538 75.3609 226.185 76.42 225.789 77.4543C224.899 73.9984 223.821 69.7015 222.794 66.9557C222.378 65.8115 221.052 65.3477 219.915 65.6525C218.455 66.0437 218.165 67.3406 218.586 68.5018C220.042 72.4428 221.74 79.3218 222.534 82.694ZM219.892 57.6879C218.12 58.8178 219.312 61.2282 221.445 62.3307C222.731 62.9871 224.142 62.9548 225.813 62.398C227.894 61.6765 229.987 60.861 230.928 58.2612C231.34 57.1499 230.797 55.8031 229.645 55.5112C228.322 55.1924 227.833 55.7421 227.332 56.3859C226.845 57.0806 226.334 57.8908 224.757 58.4588C223.866 58.7339 223.31 58.6281 222.904 58.0636C222.159 57.1167 221.034 56.9267 219.892 57.6879Z" fill="#C62F37"/>
<path d="M186 117.5C237 218 124.675 236.169 110.5 209C98.5 186 155.5 168.5 146 230.5C136.577 292 42 293 2.5 255" stroke="#C62F37" stroke-width="3.5" stroke-linecap="round"/>
</mask>
<g mask="url(#mask0)">
<rect x="-30" y="3" width="514" height="529" fill="url(#paint0_linear)"/>
</g>
<defs>
<linearGradient id="paint0_linear" x1="457.62" y1="143.72" x2="-18.0582" y2="137.071" gradientUnits="userSpaceOnUse">
<stop stop-color="#FFC700"/>
<stop offset="1" stop-color="#FFA800"/>
</linearGradient>
</defs>
</svg>
