<svg width="1920" height="1731" viewBox="0 0 1920 1731" fill="none" xmlns="http://www.w3.org/2000/svg">
<path d="M268.381 331.128C-100.772 156.355 55.5 752.5 405 742C555.158 737.489 695.528 731.342 826.726 725.596C1284.5 696 1425.83 743.206 1748 804.5C1959.51 844.741 1839.35 297.795 1708.5 518C1647 621.5 1550.5 432.5 1699.5 408C1818.7 388.4 1930.17 435.834 1971 462L1956.63 788.422C2009.12 808.173 2057.82 832.42 2103 862L2231.5 2295.5L-123.5 2355L-253 809.5C-335 250.385 -34.5184 51.7275 77.8816 10.1275C218.382 -41.8725 489.382 138.628 329.882 150.628C170.382 162.628 229.882 282.012 346.882 276.628C463.882 271.243 482.5 432.5 268.381 331.128Z" fill="url(#paint0_linear)"/>
<path d="M361.806 229.513C349.311 211.409 334.838 204.44 292.385 222.347C250.518 239.923 296.382 263.846 341.5 263C361.079 262.633 374.301 247.617 361.806 229.513Z" fill="url(#paint1_linear)"/>
<defs>
<linearGradient id="paint0_linear" x1="2103.27" y1="627.003" x2="-208.854" y2="591.701" gradientUnits="userSpaceOnUse">
<stop stop-color="#FFC700"/>
<stop offset="1" stop-color="#FFA800"/>
</linearGradient>
<linearGradient id="paint1_linear" x1="2103.27" y1="627.003" x2="-208.854" y2="591.701" gradientUnits="userSpaceOnUse">
<stop stop-color="#FFC700"/>
<stop offset="1" stop-color="#FFA800"/>
</linearGradient>
</defs>
</svg>
